<svg width="318" height="232" viewBox="0 0 318 232" fill="none" xmlns="http://www.w3.org/2000/svg">
<path d="M282.702 0.0107422L282.703 0.0214844L284.316 45.0059L311.757 82.5127L311.89 82.6943L311.753 82.8721L309.119 86.2998V97.4219H311.815V97.9229H316.128V98.9258H317.745V107.295L317.728 107.344L316.128 111.804V127.487H317.745V129.591H316.177L317.742 139.768L317.795 140.113H315.05V167.073H316.667V169.177H315.05V173.587H317.745V177.193H315.05V228.806H202.13L195.714 231.29L195.661 231.311H128.455V223.797L58.6982 224.295C55.2792 225.047 49.8774 226.172 44.7334 227.109C39.5834 228.048 34.6576 228.806 32.2529 228.806C29.2978 228.806 23.4889 228.93 18.3604 228.742C15.7964 228.648 13.3871 228.476 11.5811 228.167C10.6801 228.013 9.91208 227.822 9.3457 227.583C9.06261 227.463 8.81692 227.326 8.62793 227.165C8.43827 227.004 8.29015 226.805 8.23828 226.564C8.17863 226.287 8.11768 225.601 8.05371 224.619C7.98894 223.626 7.92055 222.302 7.84863 220.729C7.70479 217.582 7.54924 213.431 7.39648 208.91C7.09521 199.995 6.80345 189.638 6.62305 182.705H3.91895V179.099H6.61426V175.189H4.99707V143.12H3.91895V135.103H2.84082V115.917L0.8125 114.504L0.535156 114.311L0.760742 114.058C1.1969 113.571 1.79777 112.769 2.18164 111.951C2.37355 111.542 2.50468 111.144 2.54102 110.789C2.57711 110.436 2.51876 110.146 2.3584 109.923C1.52243 108.757 0.626715 108.159 0.319336 108.016L0 107.868L0.196289 107.576L8.23242 95.626V87.9014H15.8408V91.0391L29.293 66.5127C29.4656 66.1918 29.7291 65.6302 29.9482 65.0029C30.169 64.3708 30.3359 63.6984 30.3359 63.1475V16.5469L30.9355 16.5361C31.2051 23.9685 31.6359 35.2172 32.0537 44.8076C32.2626 49.6029 32.4683 53.9829 32.6484 57.2637C32.7385 58.9043 32.8229 60.2689 32.8975 61.2725C32.9347 61.7743 32.9689 62.1841 33.001 62.4922C33.034 62.8094 33.0624 62.9963 33.082 63.0693C33.5061 64.6458 33.9648 66.0273 34.1465 66.5361L45.957 87.6094L45.9248 84.6973L45.9219 84.3945H56.2744V89.0029H55.1963V105.94H56.6611L56.751 106.058L62.1426 113.073L62.2607 113.227L62.1689 113.398L60.0479 117.341V120.466L83.7451 119.976L84.25 116.223H84.8447L85.3486 119.971H110.3L116.682 113.546L116.896 113.329L117.108 113.547L121.985 118.533V107.398L119.957 105.985L119.781 105.863L119.841 105.656L127.928 77.5957L128.211 76.6113L128.503 77.5938L135.273 100.345L150.02 65.5908V55.1299L150.617 55.0967L151.666 64.3506H155.435L155.951 58.1123L156.546 58.0879L157.582 64.3506H160.802V58.1367L161.397 58.0879L162.434 64.3506H165.686L166.734 55.0967L167.332 55.1221L167.593 64.5723L176.976 82.002V71.165L177.575 71.1523L178.11 83.5928L188.108 98.2666L189.945 96.5586L195.314 75.5996L195.585 74.5459L195.893 75.5898L203.336 100.792L206.627 99.0449V94.917H208.305V95.9189H208.783V94.416H211V96.4199H211.479V94.917H213.157V96.8477L221.722 94.9746V91.9102H234.722V94.9307L254.923 95.9189L255.073 95.9268L255.157 96.0518L257.764 99.9277H262.155V89.3174L259.536 86.3975L259.395 86.2393L259.497 86.0527L282.103 45.0303V0.0107422L282.702 0V0.0107422Z" fill="black"/>
</svg>
